<svg width="131" height="26" viewBox="0 0 131 26" fill="none" xmlns="http://www.w3.org/2000/svg">
<path d="M12.84 19.52V1.94H0.21V19.52H12.84ZM10.86 17.78H2.22V3.65H10.86V17.78ZM21.03 25.16V11.87H25.86V10.13H21.03V0.019999H18.99V25.16H21.03ZM29.8474 11.03C29.8474 6.47 31.4674 3.53 35.0374 3.53C38.4874 3.53 40.1974 6.47 40.1974 11.03C40.1974 15.53 38.4874 18.53 35.0374 18.53C31.4674 18.53 29.8474 15.53 29.8474 11.03ZM27.8974 11.03C27.8974 16.55 30.4474 20.24 35.0374 20.24C39.5374 20.24 42.1174 16.55 42.1174 11.03C42.1174 5.48 39.5374 1.76 35.0374 1.76C30.4474 1.76 27.8974 5.48 27.8974 11.03ZM49.5874 25.16V0.019999H47.5774V25.16H49.5874ZM68.1105 17.54C66.8205 17.78 65.4405 17.9 64.0005 17.99C64.3005 14.39 64.5705 8.15 64.6005 3.8H67.3605V2.09H54.8505V3.8H56.8005C56.8305 8.21 57.0705 14.51 57.3405 18.11H54.5805V19.82H59.3505C62.7705 19.82 65.8605 19.64 68.3505 19.22L68.1105 17.54ZM72.1305 24.74V0.319999H70.0905V9.59H66.4005V11.3H70.0905V24.74H72.1305ZM59.5605 18.11H59.2005C58.8105 14.39 58.7205 7.67 58.7205 3.8H62.6505C62.6505 7.67 62.5305 14.36 62.1405 18.08C61.2705 18.11 60.4305 18.11 59.5605 18.11ZM75.1005 25.16H77.1405V0.019999H75.1005V25.16ZM84.3396 11.03C84.3396 6.47 85.9596 3.53 89.5296 3.53C92.9796 3.53 94.6896 6.47 94.6896 11.03C94.6896 15.53 92.9796 18.53 89.5296 18.53C85.9596 18.53 84.3396 15.53 84.3396 11.03ZM82.3896 11.03C82.3896 16.55 84.9396 20.24 89.5296 20.24C94.0296 20.24 96.6096 16.55 96.6096 11.03C96.6096 5.48 94.0296 1.76 89.5296 1.76C84.9396 1.76 82.3896 5.48 82.3896 11.03ZM104.08 25.16V0.019999H102.07V25.16H104.08ZM130.433 25.16V0.019999H128.423V25.16H130.433ZM117.443 9.98C117.503 10.37 117.653 11.18 117.923 11.93C118.553 13.79 120.353 16.67 124.253 20L125.693 18.65C120.833 15.02 118.133 10.16 118.133 5.06V3.53H124.793V1.79H109.253V3.53H116.213V5.06C116.213 10.22 113.423 15.2 108.173 19.19L109.553 20.48C114.023 17 115.883 13.7 116.513 11.87C116.723 11.18 116.963 10.37 116.993 9.98H117.443Z" fill="white"/>
</svg>
