<svg width="66" height="28" viewBox="0 0 66 28" fill="none" xmlns="http://www.w3.org/2000/svg">
<path d="M13.81 22V20.2H2.92V1.81H0.94V22H13.81ZM26.2563 14.32C26.2563 17.14 25.2063 20.59 21.8763 20.59C18.5463 20.59 17.5263 17.14 17.5263 14.32C17.5263 11.53 18.5463 8.11 21.8763 8.11C25.2063 8.11 26.2563 11.53 26.2563 14.32ZM21.8763 6.46C17.4063 6.46 15.5763 10.36 15.5763 14.32C15.5763 18.31 17.4063 22.21 21.8763 22.21C26.3763 22.21 28.1463 18.31 28.1463 14.32C28.1463 10.36 26.3763 6.46 21.8763 6.46ZM32.4684 14.41C32.4684 11.44 33.2184 8.29 36.7884 8.29C40.2384 8.29 40.8084 10.66 40.8084 14.35C40.8084 17.17 40.0884 20.14 36.6684 20.14C33.4584 20.14 32.4684 17.41 32.4684 14.41ZM40.7484 6.91V8.59H40.6884C39.5784 7.03 38.2584 6.46 36.4884 6.46C32.4084 6.46 30.4884 9.82 30.4884 14.47C30.4884 17.86 31.9284 21.94 36.5184 21.94C38.1984 21.94 40.2084 20.95 40.7184 18.97H40.7784C40.7784 23.32 40.0284 26.08 35.4984 26.08C33.8484 26.08 32.1384 25.6 30.9684 25L30.8484 26.95C31.6284 27.22 33.4284 27.73 35.4684 27.73C40.7184 27.73 42.6384 24.25 42.6384 20.02V6.91H40.7484ZM47.3392 22H49.1992V6.91H47.3392V22ZM47.1892 0.309999V2.56H49.3492V0.309999H47.1892ZM53.8877 6.91L53.9777 9.73V22H55.8377V13.33C55.8377 10.6 57.0377 8.11 60.0377 8.11C62.4977 8.11 63.7277 9.67 63.7277 12.25V22H65.5277V12.55C65.5277 10.84 65.3777 6.46 60.4577 6.46C58.6277 6.46 56.9477 7.33 55.9277 9.19H55.8377L55.7477 6.91H53.8877Z" fill="white"/>
</svg>
