<svg width="104" height="26" viewBox="0 0 104 26" fill="none" xmlns="http://www.w3.org/2000/svg">
<path d="M3.02 13.13C3.02 15.62 4.91 17.03 8.45 17.24V20.21H7.64H0.17V21.95H7.61C12.47 21.95 16.76 21.74 20.12 21.02V25.16H22.13V0.019999H20.12V19.25C17.27 19.91 13.94 20.12 10.49 20.18V17.24C14 17.03 15.92 15.59 15.92 13.13C15.92 10.43 13.64 8.99 9.47 8.99C5.27 8.99 3.02 10.43 3.02 13.13ZM4.88 13.13C4.88 11.21 6.92 10.58 9.47 10.58C12.05 10.58 14.06 11.21 14.06 13.13C14.06 15.02 12.05 15.71 9.47 15.71C6.92 15.71 4.88 15.02 4.88 13.13ZM17.27 7.13V5.42H1.58V7.13H17.27ZM4.82 2.3C7.19 3.14 11.09 3.05 14.42 2.99V1.4C11.45 1.4 8.21 1.73 5.21 0.739999L4.82 2.3ZM28.6072 5.69C28.6072 8.75 31.6972 10.31 35.4472 10.31C39.1972 10.31 42.2572 8.75 42.2572 5.69C42.2572 2.42 39.1972 1.01 35.4472 1.01C31.6972 1.01 28.6072 2.42 28.6072 5.69ZM48.6472 21.08V0.019999H46.6372V16.55H39.5572V18.29H46.6372V21.08H48.6472ZM30.4072 5.69C30.4072 3.59 32.6272 2.6 35.4472 2.6C38.2672 2.6 40.4572 3.59 40.4572 5.69C40.4572 7.76 38.2672 8.75 35.4472 8.75C32.6272 8.75 30.4072 7.76 30.4072 5.69ZM30.5872 19.76V25.64H49.2472V23.9H32.5972V19.76H30.5872ZM35.8372 18.95C35.9572 18.08 35.9872 17.27 35.9872 16.31V14.6C39.2572 14.54 42.2272 14.33 44.7472 13.85L44.4772 12.2C41.1172 12.8 37.1872 12.92 33.2572 12.92H26.5372V14.63H33.0772H33.9472V16.31C33.9472 17.24 33.8872 18.02 33.7672 18.83L35.8372 18.95ZM73.8409 25.16V11.27H78.7009V9.56H73.8409V0.019999H71.8309V25.16H73.8409ZM62.5609 20.99C64.4809 15.17 65.3209 6.77 65.3209 1.79H52.4809V3.53H63.3409C63.3409 6.89 62.5909 14.87 60.5509 20.57L62.5609 20.99ZM103.018 14.03V0.019999H100.978V14.03H103.018ZM103.018 25.79V15.38H100.978V19.1H87.0875V15.38H85.0775V25.79H103.018ZM100.978 24.05H87.0875V20.84H100.978V24.05ZM82.9775 7.13C82.9775 4.22 84.9875 2.48 87.7475 2.48C90.4775 2.48 92.4875 4.22 92.4875 7.13C92.4875 10.01 90.4775 11.78 87.7475 11.78C84.9875 11.78 82.9775 10.01 82.9775 7.13ZM81.0275 7.13C81.0275 11.03 83.8475 13.52 87.7475 13.52C91.6175 13.52 94.4075 11.03 94.4075 7.13C94.4075 3.23 91.6175 0.769998 87.7475 0.769998C83.8475 0.769998 81.0275 3.23 81.0275 7.13Z" fill="white"/>
</svg>
